<mxfile host="Electron" modified="2023-11-18T01:34:06.395Z" agent="Mozilla/5.0 (Windows NT 10.0; Win64; x64) AppleWebKit/537.36 (KHTML, like Gecko) draw.io/22.0.1 Chrome/114.0.5735.289 Electron/25.8.4 Safari/537.36" etag="b5Qlmb5WUN3apQu7R6a1" version="22.0.1" type="device">
  <diagram name="Page-1" id="jj3Qg5OpltzgcFYNsJr6">
    <mxGraphModel dx="3125" dy="2346" grid="1" gridSize="10" guides="1" tooltips="1" connect="1" arrows="1" fold="1" page="1" pageScale="1" pageWidth="1100" pageHeight="850" math="0" shadow="0">
      <root>
        <mxCell id="0" />
        <mxCell id="1" parent="0" />
        <mxCell id="dG53fJAK-FC98SlLvQtN-12" style="edgeStyle=orthogonalEdgeStyle;rounded=0;orthogonalLoop=1;jettySize=auto;html=1;entryX=0;entryY=0.75;entryDx=0;entryDy=0;" edge="1" parent="1" source="dG53fJAK-FC98SlLvQtN-1" target="dG53fJAK-FC98SlLvQtN-5">
          <mxGeometry relative="1" as="geometry">
            <Array as="points">
              <mxPoint x="200" y="625" />
              <mxPoint x="200" y="658" />
            </Array>
          </mxGeometry>
        </mxCell>
        <mxCell id="dG53fJAK-FC98SlLvQtN-13" style="edgeStyle=orthogonalEdgeStyle;rounded=0;orthogonalLoop=1;jettySize=auto;html=1;entryX=0;entryY=0.75;entryDx=0;entryDy=0;" edge="1" parent="1" source="dG53fJAK-FC98SlLvQtN-1" target="dG53fJAK-FC98SlLvQtN-7">
          <mxGeometry relative="1" as="geometry">
            <Array as="points">
              <mxPoint x="200" y="625" />
              <mxPoint x="200" y="740" />
              <mxPoint x="540" y="740" />
              <mxPoint x="540" y="658" />
            </Array>
          </mxGeometry>
        </mxCell>
        <mxCell id="dG53fJAK-FC98SlLvQtN-1" value="clock_div" style="rounded=0;whiteSpace=wrap;html=1;" vertex="1" parent="1">
          <mxGeometry x="-10" y="580" width="120" height="90" as="geometry" />
        </mxCell>
        <mxCell id="dG53fJAK-FC98SlLvQtN-74" style="edgeStyle=orthogonalEdgeStyle;rounded=0;orthogonalLoop=1;jettySize=auto;html=1;entryX=0.25;entryY=1;entryDx=0;entryDy=0;" edge="1" parent="1" source="dG53fJAK-FC98SlLvQtN-3" target="dG53fJAK-FC98SlLvQtN-40">
          <mxGeometry relative="1" as="geometry">
            <mxPoint x="150" y="140" as="targetPoint" />
            <Array as="points">
              <mxPoint x="160" y="25" />
              <mxPoint x="160" y="145" />
            </Array>
          </mxGeometry>
        </mxCell>
        <mxCell id="dG53fJAK-FC98SlLvQtN-94" style="edgeStyle=orthogonalEdgeStyle;rounded=0;orthogonalLoop=1;jettySize=auto;html=1;entryX=0.25;entryY=1;entryDx=0;entryDy=0;" edge="1" parent="1" source="dG53fJAK-FC98SlLvQtN-3" target="dG53fJAK-FC98SlLvQtN-81">
          <mxGeometry relative="1" as="geometry">
            <Array as="points">
              <mxPoint x="40" y="25" />
              <mxPoint x="40" y="220" />
              <mxPoint x="77" y="220" />
            </Array>
          </mxGeometry>
        </mxCell>
        <mxCell id="dG53fJAK-FC98SlLvQtN-109" style="edgeStyle=orthogonalEdgeStyle;rounded=0;orthogonalLoop=1;jettySize=auto;html=1;entryX=0.25;entryY=1;entryDx=0;entryDy=0;" edge="1" parent="1" source="dG53fJAK-FC98SlLvQtN-3" target="dG53fJAK-FC98SlLvQtN-100">
          <mxGeometry relative="1" as="geometry">
            <Array as="points">
              <mxPoint x="-80" y="25" />
              <mxPoint x="-80" y="291" />
            </Array>
          </mxGeometry>
        </mxCell>
        <mxCell id="dG53fJAK-FC98SlLvQtN-114" style="edgeStyle=orthogonalEdgeStyle;rounded=0;orthogonalLoop=1;jettySize=auto;html=1;entryX=0.25;entryY=1;entryDx=0;entryDy=0;" edge="1" parent="1" source="dG53fJAK-FC98SlLvQtN-3" target="dG53fJAK-FC98SlLvQtN-113">
          <mxGeometry relative="1" as="geometry">
            <Array as="points">
              <mxPoint x="-200" y="25" />
              <mxPoint x="-200" y="395" />
            </Array>
          </mxGeometry>
        </mxCell>
        <mxCell id="dG53fJAK-FC98SlLvQtN-122" style="edgeStyle=orthogonalEdgeStyle;rounded=0;orthogonalLoop=1;jettySize=auto;html=1;entryX=0.25;entryY=1;entryDx=0;entryDy=0;" edge="1" parent="1" source="dG53fJAK-FC98SlLvQtN-3" target="dG53fJAK-FC98SlLvQtN-120">
          <mxGeometry relative="1" as="geometry">
            <Array as="points">
              <mxPoint x="-310" y="25" />
              <mxPoint x="-310" y="501" />
            </Array>
          </mxGeometry>
        </mxCell>
        <mxCell id="dG53fJAK-FC98SlLvQtN-3" value="ROM&lt;br&gt;&lt;br&gt;&lt;br&gt;&lt;br&gt;" style="whiteSpace=wrap;html=1;" vertex="1" parent="1">
          <mxGeometry x="-500" y="-40" width="120" height="130" as="geometry" />
        </mxCell>
        <mxCell id="dG53fJAK-FC98SlLvQtN-4" value="" style="triangle;whiteSpace=wrap;html=1;rotation=-90;" vertex="1" parent="1">
          <mxGeometry x="-452.5" y="70.63" width="25" height="13.75" as="geometry" />
        </mxCell>
        <mxCell id="dG53fJAK-FC98SlLvQtN-59" style="edgeStyle=orthogonalEdgeStyle;rounded=0;orthogonalLoop=1;jettySize=auto;html=1;exitX=1;exitY=0.25;exitDx=0;exitDy=0;endArrow=none;endFill=0;" edge="1" parent="1" source="dG53fJAK-FC98SlLvQtN-5">
          <mxGeometry relative="1" as="geometry">
            <mxPoint x="530" y="530" as="targetPoint" />
            <Array as="points">
              <mxPoint x="480" y="593" />
              <mxPoint x="480" y="530" />
            </Array>
          </mxGeometry>
        </mxCell>
        <mxCell id="dG53fJAK-FC98SlLvQtN-137" style="edgeStyle=orthogonalEdgeStyle;rounded=0;orthogonalLoop=1;jettySize=auto;html=1;exitX=1;exitY=0.75;exitDx=0;exitDy=0;endArrow=none;endFill=0;" edge="1" parent="1" source="dG53fJAK-FC98SlLvQtN-5">
          <mxGeometry relative="1" as="geometry">
            <mxPoint x="480" y="729.9999999999998" as="targetPoint" />
          </mxGeometry>
        </mxCell>
        <mxCell id="dG53fJAK-FC98SlLvQtN-5" value="clear_counter" style="whiteSpace=wrap;html=1;" vertex="1" parent="1">
          <mxGeometry x="280" y="560" width="170" height="130" as="geometry" />
        </mxCell>
        <mxCell id="dG53fJAK-FC98SlLvQtN-6" value="" style="triangle;whiteSpace=wrap;html=1;rotation=-90;" vertex="1" parent="1">
          <mxGeometry x="326.88" y="670.63" width="25" height="13.75" as="geometry" />
        </mxCell>
        <mxCell id="dG53fJAK-FC98SlLvQtN-38" style="edgeStyle=orthogonalEdgeStyle;rounded=0;orthogonalLoop=1;jettySize=auto;html=1;exitX=1;exitY=0.75;exitDx=0;exitDy=0;entryX=0;entryY=0.5;entryDx=0;entryDy=0;" edge="1" parent="1" source="dG53fJAK-FC98SlLvQtN-7" target="dG53fJAK-FC98SlLvQtN-3">
          <mxGeometry relative="1" as="geometry">
            <mxPoint x="-421.0255784254808" y="510" as="targetPoint" />
            <Array as="points">
              <mxPoint x="800" y="658" />
              <mxPoint x="800" y="800" />
              <mxPoint x="-600" y="800" />
              <mxPoint x="-600" y="25" />
            </Array>
          </mxGeometry>
        </mxCell>
        <mxCell id="dG53fJAK-FC98SlLvQtN-48" style="edgeStyle=orthogonalEdgeStyle;rounded=0;orthogonalLoop=1;jettySize=auto;html=1;exitX=1;exitY=0.25;exitDx=0;exitDy=0;entryX=0.333;entryY=0.667;entryDx=0;entryDy=0;entryPerimeter=0;" edge="1" parent="1" source="dG53fJAK-FC98SlLvQtN-7" target="dG53fJAK-FC98SlLvQtN-46">
          <mxGeometry relative="1" as="geometry" />
        </mxCell>
        <mxCell id="dG53fJAK-FC98SlLvQtN-7" value="addr_counter" style="whiteSpace=wrap;html=1;" vertex="1" parent="1">
          <mxGeometry x="620" y="560" width="150" height="130" as="geometry" />
        </mxCell>
        <mxCell id="dG53fJAK-FC98SlLvQtN-8" value="" style="triangle;whiteSpace=wrap;html=1;rotation=-90;" vertex="1" parent="1">
          <mxGeometry x="682.5" y="670.63" width="25" height="13.75" as="geometry" />
        </mxCell>
        <mxCell id="dG53fJAK-FC98SlLvQtN-9" value="" style="triangle;whiteSpace=wrap;html=1;rotation=-90;" vertex="1" parent="1">
          <mxGeometry x="37.5" y="651" width="25" height="13.75" as="geometry" />
        </mxCell>
        <mxCell id="dG53fJAK-FC98SlLvQtN-18" style="edgeStyle=orthogonalEdgeStyle;rounded=0;orthogonalLoop=1;jettySize=auto;html=1;exitX=1;exitY=0.75;exitDx=0;exitDy=0;entryX=0;entryY=0.25;entryDx=0;entryDy=0;" edge="1" parent="1" source="dG53fJAK-FC98SlLvQtN-10" target="dG53fJAK-FC98SlLvQtN-5">
          <mxGeometry relative="1" as="geometry">
            <mxPoint x="220" y="590" as="targetPoint" />
            <Array as="points">
              <mxPoint x="639" y="330" />
              <mxPoint x="659" y="330" />
              <mxPoint x="659" y="435" />
              <mxPoint x="240" y="435" />
              <mxPoint x="240" y="593" />
            </Array>
          </mxGeometry>
        </mxCell>
        <mxCell id="dG53fJAK-FC98SlLvQtN-19" style="edgeStyle=orthogonalEdgeStyle;rounded=0;orthogonalLoop=1;jettySize=auto;html=1;exitX=1;exitY=0.75;exitDx=0;exitDy=0;entryX=0;entryY=0.25;entryDx=0;entryDy=0;" edge="1" parent="1" source="dG53fJAK-FC98SlLvQtN-10" target="dG53fJAK-FC98SlLvQtN-7">
          <mxGeometry relative="1" as="geometry">
            <Array as="points">
              <mxPoint x="639" y="330" />
              <mxPoint x="659" y="330" />
              <mxPoint x="659" y="435" />
              <mxPoint x="540" y="435" />
              <mxPoint x="540" y="592" />
            </Array>
          </mxGeometry>
        </mxCell>
        <mxCell id="dG53fJAK-FC98SlLvQtN-24" style="edgeStyle=orthogonalEdgeStyle;rounded=0;orthogonalLoop=1;jettySize=auto;html=1;entryX=0;entryY=0.75;entryDx=0;entryDy=0;" edge="1" parent="1" source="dG53fJAK-FC98SlLvQtN-10" target="dG53fJAK-FC98SlLvQtN-21">
          <mxGeometry relative="1" as="geometry">
            <Array as="points">
              <mxPoint x="720" y="280" />
              <mxPoint x="720" y="438" />
            </Array>
          </mxGeometry>
        </mxCell>
        <mxCell id="dG53fJAK-FC98SlLvQtN-25" style="edgeStyle=orthogonalEdgeStyle;rounded=0;orthogonalLoop=1;jettySize=auto;html=1;exitX=1;exitY=0.25;exitDx=0;exitDy=0;entryX=0;entryY=0.5;entryDx=0;entryDy=0;" edge="1" parent="1" source="dG53fJAK-FC98SlLvQtN-10" target="dG53fJAK-FC98SlLvQtN-21">
          <mxGeometry relative="1" as="geometry">
            <Array as="points">
              <mxPoint x="760" y="235" />
              <mxPoint x="760" y="405" />
            </Array>
          </mxGeometry>
        </mxCell>
        <mxCell id="dG53fJAK-FC98SlLvQtN-10" value="line_drawer" style="whiteSpace=wrap;html=1;points=[[0,0,0,0,0],[0,0.17,0,0,0],[0,0.33,0,0,0],[0,0.5,0,0,0],[0,0.67,0,0,0],[0,0.83,0,0,0],[0,1,0,0,0],[0.25,0,0,0,0],[0.25,1,0,0,0],[0.5,0,0,0,0],[0.5,1,0,0,0],[0.75,0,0,0,0],[0.75,1,0,0,0],[1,0,0,0,0],[1,0.25,0,0,0],[1,0.5,0,0,0],[1,0.75,0,0,0],[1,1,0,0,0]];" vertex="1" parent="1">
          <mxGeometry x="420" y="190" width="219.38" height="180" as="geometry" />
        </mxCell>
        <mxCell id="dG53fJAK-FC98SlLvQtN-11" value="" style="triangle;whiteSpace=wrap;html=1;rotation=-90;" vertex="1" parent="1">
          <mxGeometry x="517.1899999999999" y="350.63" width="25" height="13.75" as="geometry" />
        </mxCell>
        <mxCell id="dG53fJAK-FC98SlLvQtN-14" value="clock" style="text;html=1;align=center;verticalAlign=middle;resizable=0;points=[];autosize=1;strokeColor=none;fillColor=none;" vertex="1" parent="1">
          <mxGeometry x="280" y="642.88" width="50" height="30" as="geometry" />
        </mxCell>
        <mxCell id="dG53fJAK-FC98SlLvQtN-15" value="clock" style="text;html=1;align=left;verticalAlign=middle;resizable=0;points=[];autosize=1;strokeColor=none;fillColor=none;" vertex="1" parent="1">
          <mxGeometry x="620" y="642.87" width="50" height="30" as="geometry" />
        </mxCell>
        <mxCell id="dG53fJAK-FC98SlLvQtN-16" value="done" style="text;html=1;align=left;verticalAlign=middle;resizable=0;points=[];autosize=1;strokeColor=none;fillColor=none;" vertex="1" parent="1">
          <mxGeometry x="620" y="580" width="50" height="30" as="geometry" />
        </mxCell>
        <mxCell id="dG53fJAK-FC98SlLvQtN-17" value="done" style="text;html=1;align=center;verticalAlign=middle;resizable=0;points=[];autosize=1;strokeColor=none;fillColor=none;" vertex="1" parent="1">
          <mxGeometry x="280" y="580" width="50" height="30" as="geometry" />
        </mxCell>
        <mxCell id="dG53fJAK-FC98SlLvQtN-20" value="done" style="text;html=1;align=center;verticalAlign=bottom;resizable=0;points=[];autosize=1;strokeColor=none;fillColor=none;" vertex="1" parent="1">
          <mxGeometry x="589.38" y="310" width="50" height="30" as="geometry" />
        </mxCell>
        <mxCell id="dG53fJAK-FC98SlLvQtN-67" style="edgeStyle=orthogonalEdgeStyle;rounded=0;orthogonalLoop=1;jettySize=auto;html=1;" edge="1" parent="1" source="dG53fJAK-FC98SlLvQtN-21" target="dG53fJAK-FC98SlLvQtN-66">
          <mxGeometry relative="1" as="geometry" />
        </mxCell>
        <mxCell id="dG53fJAK-FC98SlLvQtN-21" value="frame buffer" style="whiteSpace=wrap;html=1;" vertex="1" parent="1">
          <mxGeometry x="890" y="340" width="150" height="130" as="geometry" />
        </mxCell>
        <mxCell id="dG53fJAK-FC98SlLvQtN-22" value="" style="triangle;whiteSpace=wrap;html=1;rotation=-90;" vertex="1" parent="1">
          <mxGeometry x="952.5" y="450.63" width="25" height="13.75" as="geometry" />
        </mxCell>
        <mxCell id="dG53fJAK-FC98SlLvQtN-26" value="x" style="text;html=1;align=center;verticalAlign=middle;resizable=0;points=[];autosize=1;strokeColor=none;fillColor=none;" vertex="1" parent="1">
          <mxGeometry x="890" y="390" width="30" height="30" as="geometry" />
        </mxCell>
        <mxCell id="dG53fJAK-FC98SlLvQtN-27" value="y" style="text;html=1;align=center;verticalAlign=middle;resizable=0;points=[];autosize=1;strokeColor=none;fillColor=none;" vertex="1" parent="1">
          <mxGeometry x="890" y="420.63" width="30" height="30" as="geometry" />
        </mxCell>
        <mxCell id="dG53fJAK-FC98SlLvQtN-34" value="x" style="text;html=1;align=center;verticalAlign=middle;resizable=0;points=[];autosize=1;strokeColor=none;fillColor=none;" vertex="1" parent="1">
          <mxGeometry x="609.38" y="220" width="30" height="30" as="geometry" />
        </mxCell>
        <mxCell id="dG53fJAK-FC98SlLvQtN-35" value="y" style="text;html=1;align=center;verticalAlign=middle;resizable=0;points=[];autosize=1;strokeColor=none;fillColor=none;" vertex="1" parent="1">
          <mxGeometry x="609.38" y="265" width="30" height="30" as="geometry" />
        </mxCell>
        <mxCell id="dG53fJAK-FC98SlLvQtN-36" value="line_color" style="text;strokeColor=none;align=center;fillColor=none;html=1;verticalAlign=middle;whiteSpace=wrap;rounded=0;" vertex="1" parent="1">
          <mxGeometry x="890" y="350.63" width="60" height="30" as="geometry" />
        </mxCell>
        <mxCell id="dG53fJAK-FC98SlLvQtN-39" value="read_addr" style="text;strokeColor=none;align=center;fillColor=none;html=1;verticalAlign=middle;whiteSpace=wrap;rounded=0;" vertex="1" parent="1">
          <mxGeometry x="710" y="642.88" width="60" height="30" as="geometry" />
        </mxCell>
        <mxCell id="dG53fJAK-FC98SlLvQtN-70" style="edgeStyle=orthogonalEdgeStyle;rounded=0;orthogonalLoop=1;jettySize=auto;html=1;endArrow=none;endFill=0;" edge="1" parent="1" source="dG53fJAK-FC98SlLvQtN-40">
          <mxGeometry relative="1" as="geometry">
            <mxPoint x="380" y="160" as="targetPoint" />
            <Array as="points">
              <mxPoint x="239" y="160" />
            </Array>
          </mxGeometry>
        </mxCell>
        <mxCell id="dG53fJAK-FC98SlLvQtN-40" value="" style="shape=trapezoid;perimeter=trapezoidPerimeter;whiteSpace=wrap;html=1;fixedSize=1;rotation=90;" vertex="1" parent="1">
          <mxGeometry x="186.88" y="144.38" width="60" height="31.25" as="geometry" />
        </mxCell>
        <mxCell id="dG53fJAK-FC98SlLvQtN-42" value="" style="shape=trapezoid;perimeter=trapezoidPerimeter;whiteSpace=wrap;html=1;fixedSize=1;rotation=90;" vertex="1" parent="1">
          <mxGeometry x="902" y="538" width="59" height="22.5" as="geometry" />
        </mxCell>
        <mxCell id="dG53fJAK-FC98SlLvQtN-44" style="edgeStyle=orthogonalEdgeStyle;rounded=0;orthogonalLoop=1;jettySize=auto;html=1;entryX=1;entryY=0.5;entryDx=0;entryDy=0;" edge="1" parent="1" source="dG53fJAK-FC98SlLvQtN-43" target="dG53fJAK-FC98SlLvQtN-42">
          <mxGeometry relative="1" as="geometry" />
        </mxCell>
        <mxCell id="dG53fJAK-FC98SlLvQtN-43" value="SW[0]" style="text;html=1;align=center;verticalAlign=middle;resizable=0;points=[];autosize=1;strokeColor=none;fillColor=none;" vertex="1" parent="1">
          <mxGeometry x="901.25" y="634.75" width="60" height="30" as="geometry" />
        </mxCell>
        <mxCell id="dG53fJAK-FC98SlLvQtN-45" value="1" style="text;html=1;align=center;verticalAlign=middle;resizable=0;points=[];autosize=1;strokeColor=none;fillColor=none;" vertex="1" parent="1">
          <mxGeometry x="910" y="520" width="30" height="30" as="geometry" />
        </mxCell>
        <mxCell id="dG53fJAK-FC98SlLvQtN-46" value="0" style="text;html=1;align=center;verticalAlign=middle;resizable=0;points=[];autosize=1;strokeColor=none;fillColor=none;" vertex="1" parent="1">
          <mxGeometry x="910" y="550" width="30" height="30" as="geometry" />
        </mxCell>
        <mxCell id="dG53fJAK-FC98SlLvQtN-51" value="" style="curved=1;endArrow=none;html=1;rounded=0;endFill=0;" edge="1" parent="1">
          <mxGeometry width="50" height="50" relative="1" as="geometry">
            <mxPoint x="550" y="530" as="sourcePoint" />
            <mxPoint x="530" y="530" as="targetPoint" />
            <Array as="points">
              <mxPoint x="550" y="520" />
              <mxPoint x="530" y="520" />
            </Array>
          </mxGeometry>
        </mxCell>
        <mxCell id="dG53fJAK-FC98SlLvQtN-57" value="" style="curved=1;endArrow=none;html=1;rounded=0;endFill=0;" edge="1" parent="1">
          <mxGeometry width="50" height="50" relative="1" as="geometry">
            <mxPoint x="480" y="750" as="sourcePoint" />
            <mxPoint x="480" y="730" as="targetPoint" />
            <Array as="points">
              <mxPoint x="490" y="750" />
              <mxPoint x="490" y="730" />
            </Array>
          </mxGeometry>
        </mxCell>
        <mxCell id="dG53fJAK-FC98SlLvQtN-62" value="" style="edgeStyle=none;orthogonalLoop=1;jettySize=auto;html=1;rounded=0;entryX=0.333;entryY=0.333;entryDx=0;entryDy=0;entryPerimeter=0;" edge="1" parent="1" target="dG53fJAK-FC98SlLvQtN-45">
          <mxGeometry width="80" relative="1" as="geometry">
            <mxPoint x="550" y="530" as="sourcePoint" />
            <mxPoint x="690" y="510" as="targetPoint" />
            <Array as="points" />
          </mxGeometry>
        </mxCell>
        <mxCell id="dG53fJAK-FC98SlLvQtN-63" value="line_drawer_reset" style="text;html=1;align=center;verticalAlign=middle;resizable=0;points=[];autosize=1;strokeColor=none;fillColor=none;" vertex="1" parent="1">
          <mxGeometry x="340" y="580" width="120" height="30" as="geometry" />
        </mxCell>
        <mxCell id="dG53fJAK-FC98SlLvQtN-64" value="line_drawer_reset" style="text;html=1;align=center;verticalAlign=middle;resizable=0;points=[];autosize=1;strokeColor=none;fillColor=none;" vertex="1" parent="1">
          <mxGeometry x="660" y="580" width="120" height="30" as="geometry" />
        </mxCell>
        <mxCell id="dG53fJAK-FC98SlLvQtN-65" style="edgeStyle=orthogonalEdgeStyle;rounded=0;orthogonalLoop=1;jettySize=auto;html=1;entryX=0;entryY=0.17;entryDx=0;entryDy=0;entryPerimeter=0;" edge="1" parent="1" source="dG53fJAK-FC98SlLvQtN-42" target="dG53fJAK-FC98SlLvQtN-10">
          <mxGeometry relative="1" as="geometry">
            <Array as="points">
              <mxPoint x="1190" y="549" />
              <mxPoint x="1190" y="80" />
              <mxPoint x="390" y="80" />
              <mxPoint x="390" y="221" />
            </Array>
          </mxGeometry>
        </mxCell>
        <mxCell id="dG53fJAK-FC98SlLvQtN-66" value="VGA" style="text;html=1;align=center;verticalAlign=middle;resizable=0;points=[];autosize=1;strokeColor=none;fillColor=none;" vertex="1" parent="1">
          <mxGeometry x="1100" y="390" width="50" height="30" as="geometry" />
        </mxCell>
        <mxCell id="dG53fJAK-FC98SlLvQtN-68" value="line_drawer_reset" style="text;html=1;align=left;verticalAlign=bottom;resizable=0;points=[];autosize=1;strokeColor=none;fillColor=none;" vertex="1" parent="1">
          <mxGeometry x="420" y="200" width="120" height="30" as="geometry" />
        </mxCell>
        <mxCell id="dG53fJAK-FC98SlLvQtN-69" value="" style="curved=1;endArrow=none;html=1;rounded=0;endFill=0;" edge="1" parent="1">
          <mxGeometry width="50" height="50" relative="1" as="geometry">
            <mxPoint x="400.00000000000006" y="160" as="sourcePoint" />
            <mxPoint x="380.00000000000006" y="160" as="targetPoint" />
            <Array as="points">
              <mxPoint x="400.00000000000006" y="150" />
              <mxPoint x="380.00000000000006" y="150" />
            </Array>
          </mxGeometry>
        </mxCell>
        <mxCell id="dG53fJAK-FC98SlLvQtN-71" value="" style="edgeStyle=orthogonalEdgeStyle;orthogonalLoop=1;jettySize=auto;html=1;rounded=0;entryX=0;entryY=0.5;entryDx=0;entryDy=0;" edge="1" parent="1" target="dG53fJAK-FC98SlLvQtN-36">
          <mxGeometry width="80" relative="1" as="geometry">
            <mxPoint x="400" y="160" as="sourcePoint" />
            <mxPoint x="670" y="140" as="targetPoint" />
            <Array as="points">
              <mxPoint x="800" y="160" />
              <mxPoint x="800" y="366" />
            </Array>
          </mxGeometry>
        </mxCell>
        <mxCell id="dG53fJAK-FC98SlLvQtN-72" value="0" style="text;html=1;align=center;verticalAlign=middle;resizable=0;points=[];autosize=1;strokeColor=none;fillColor=none;" vertex="1" parent="1">
          <mxGeometry x="190" y="130" width="30" height="30" as="geometry" />
        </mxCell>
        <mxCell id="dG53fJAK-FC98SlLvQtN-73" value="1" style="text;html=1;align=center;verticalAlign=middle;resizable=0;points=[];autosize=1;strokeColor=none;fillColor=none;" vertex="1" parent="1">
          <mxGeometry x="190" y="160" width="30" height="30" as="geometry" />
        </mxCell>
        <mxCell id="dG53fJAK-FC98SlLvQtN-77" style="edgeStyle=orthogonalEdgeStyle;rounded=0;orthogonalLoop=1;jettySize=auto;html=1;entryX=0.75;entryY=1;entryDx=0;entryDy=0;" edge="1" parent="1" source="dG53fJAK-FC98SlLvQtN-75" target="dG53fJAK-FC98SlLvQtN-40">
          <mxGeometry relative="1" as="geometry" />
        </mxCell>
        <mxCell id="dG53fJAK-FC98SlLvQtN-75" value="0" style="text;html=1;align=center;verticalAlign=middle;resizable=0;points=[];autosize=1;strokeColor=none;fillColor=none;" vertex="1" parent="1">
          <mxGeometry x="130" y="160" width="30" height="30" as="geometry" />
        </mxCell>
        <mxCell id="dG53fJAK-FC98SlLvQtN-78" value="" style="endArrow=none;html=1;rounded=0;" edge="1" parent="1">
          <mxGeometry width="50" height="50" relative="1" as="geometry">
            <mxPoint x="150" y="70" as="sourcePoint" />
            <mxPoint x="170" y="50" as="targetPoint" />
          </mxGeometry>
        </mxCell>
        <mxCell id="dG53fJAK-FC98SlLvQtN-79" value="1" style="text;html=1;align=center;verticalAlign=bottom;resizable=0;points=[];autosize=1;strokeColor=none;fillColor=none;" vertex="1" parent="1">
          <mxGeometry x="156.88" y="40.63" width="30" height="30" as="geometry" />
        </mxCell>
        <mxCell id="dG53fJAK-FC98SlLvQtN-80" value="rom_out[38]" style="text;html=1;align=center;verticalAlign=middle;resizable=0;points=[];autosize=1;strokeColor=none;fillColor=none;" vertex="1" parent="1">
          <mxGeometry x="156.88" y="70.63" width="90" height="30" as="geometry" />
        </mxCell>
        <mxCell id="dG53fJAK-FC98SlLvQtN-81" value="" style="shape=trapezoid;perimeter=trapezoidPerimeter;whiteSpace=wrap;html=1;fixedSize=1;rotation=90;" vertex="1" parent="1">
          <mxGeometry x="62.5" y="218.75" width="60" height="31.25" as="geometry" />
        </mxCell>
        <mxCell id="dG53fJAK-FC98SlLvQtN-83" value="&amp;nbsp;1" style="text;html=1;align=left;verticalAlign=middle;resizable=0;points=[];autosize=1;strokeColor=none;fillColor=none;" vertex="1" parent="1">
          <mxGeometry x="72.5" y="235" width="30" height="30" as="geometry" />
        </mxCell>
        <mxCell id="dG53fJAK-FC98SlLvQtN-84" style="edgeStyle=orthogonalEdgeStyle;rounded=0;orthogonalLoop=1;jettySize=auto;html=1;entryX=0;entryY=0.33;entryDx=0;entryDy=0;entryPerimeter=0;" edge="1" parent="1" source="dG53fJAK-FC98SlLvQtN-81" target="dG53fJAK-FC98SlLvQtN-10">
          <mxGeometry relative="1" as="geometry">
            <Array as="points">
              <mxPoint x="160" y="234" />
              <mxPoint x="160" y="249" />
            </Array>
          </mxGeometry>
        </mxCell>
        <mxCell id="dG53fJAK-FC98SlLvQtN-86" value="" style="endArrow=none;html=1;rounded=0;" edge="1" parent="1">
          <mxGeometry width="50" height="50" relative="1" as="geometry">
            <mxPoint x="30" y="70" as="sourcePoint" />
            <mxPoint x="50" y="50" as="targetPoint" />
          </mxGeometry>
        </mxCell>
        <mxCell id="dG53fJAK-FC98SlLvQtN-87" value="11" style="text;html=1;align=right;verticalAlign=bottom;resizable=0;points=[];autosize=1;strokeColor=none;fillColor=none;" vertex="1" parent="1">
          <mxGeometry x="22.5" y="40.63" width="40" height="30" as="geometry" />
        </mxCell>
        <mxCell id="dG53fJAK-FC98SlLvQtN-88" value="{1&#39;b0,&lt;br&gt;rom_out[37:28]}" style="text;html=1;align=center;verticalAlign=middle;resizable=0;points=[];autosize=1;strokeColor=none;fillColor=none;" vertex="1" parent="1">
          <mxGeometry x="35" y="65.63" width="110" height="40" as="geometry" />
        </mxCell>
        <mxCell id="dG53fJAK-FC98SlLvQtN-89" value="x0" style="text;html=1;align=left;verticalAlign=bottom;resizable=0;points=[];autosize=1;strokeColor=none;fillColor=none;" vertex="1" parent="1">
          <mxGeometry x="420" y="230" width="40" height="30" as="geometry" />
        </mxCell>
        <mxCell id="dG53fJAK-FC98SlLvQtN-95" style="edgeStyle=orthogonalEdgeStyle;rounded=0;orthogonalLoop=1;jettySize=auto;html=1;entryX=0.75;entryY=1;entryDx=0;entryDy=0;" edge="1" parent="1" source="dG53fJAK-FC98SlLvQtN-91" target="dG53fJAK-FC98SlLvQtN-81">
          <mxGeometry relative="1" as="geometry" />
        </mxCell>
        <mxCell id="dG53fJAK-FC98SlLvQtN-91" value="clear_x0" style="text;html=1;align=center;verticalAlign=middle;resizable=0;points=[];autosize=1;strokeColor=none;fillColor=none;labelPosition=center;verticalLabelPosition=middle;" vertex="1" parent="1">
          <mxGeometry x="-32.5" y="235" width="70" height="30" as="geometry" />
        </mxCell>
        <mxCell id="dG53fJAK-FC98SlLvQtN-96" value="&amp;nbsp;0" style="text;html=1;align=left;verticalAlign=middle;resizable=0;points=[];autosize=1;strokeColor=none;fillColor=none;" vertex="1" parent="1">
          <mxGeometry x="72.5" y="205" width="30" height="30" as="geometry" />
        </mxCell>
        <mxCell id="dG53fJAK-FC98SlLvQtN-100" value="" style="shape=trapezoid;perimeter=trapezoidPerimeter;whiteSpace=wrap;html=1;fixedSize=1;rotation=90;" vertex="1" parent="1">
          <mxGeometry x="-60" y="290" width="60" height="31.25" as="geometry" />
        </mxCell>
        <mxCell id="dG53fJAK-FC98SlLvQtN-104" value="y0" style="text;html=1;align=left;verticalAlign=bottom;resizable=0;points=[];autosize=1;strokeColor=none;fillColor=none;" vertex="1" parent="1">
          <mxGeometry x="420" y="260" width="40" height="30" as="geometry" />
        </mxCell>
        <mxCell id="dG53fJAK-FC98SlLvQtN-107" style="edgeStyle=orthogonalEdgeStyle;rounded=0;orthogonalLoop=1;jettySize=auto;html=1;entryX=0;entryY=0.5;entryDx=0;entryDy=0;entryPerimeter=0;" edge="1" parent="1" source="dG53fJAK-FC98SlLvQtN-100" target="dG53fJAK-FC98SlLvQtN-10">
          <mxGeometry relative="1" as="geometry">
            <Array as="points">
              <mxPoint x="20" y="306" />
              <mxPoint x="20" y="330" />
              <mxPoint x="130" y="330" />
              <mxPoint x="130" y="280" />
            </Array>
          </mxGeometry>
        </mxCell>
        <mxCell id="dG53fJAK-FC98SlLvQtN-110" value="" style="endArrow=none;html=1;rounded=0;" edge="1" parent="1">
          <mxGeometry width="50" height="50" relative="1" as="geometry">
            <mxPoint x="-90" y="70.63" as="sourcePoint" />
            <mxPoint x="-70" y="50.63" as="targetPoint" />
          </mxGeometry>
        </mxCell>
        <mxCell id="dG53fJAK-FC98SlLvQtN-111" value="11" style="text;html=1;align=right;verticalAlign=bottom;resizable=0;points=[];autosize=1;strokeColor=none;fillColor=none;" vertex="1" parent="1">
          <mxGeometry x="-100" y="40.63" width="40" height="30" as="geometry" />
        </mxCell>
        <mxCell id="dG53fJAK-FC98SlLvQtN-112" value="{2&#39;b0,&lt;br&gt;rom_out[27:19]}" style="text;html=1;align=center;verticalAlign=middle;resizable=0;points=[];autosize=1;strokeColor=none;fillColor=none;" vertex="1" parent="1">
          <mxGeometry x="-90" y="60.629999999999995" width="110" height="40" as="geometry" />
        </mxCell>
        <mxCell id="dG53fJAK-FC98SlLvQtN-113" value="" style="shape=trapezoid;perimeter=trapezoidPerimeter;whiteSpace=wrap;html=1;fixedSize=1;rotation=90;" vertex="1" parent="1">
          <mxGeometry x="-140" y="394" width="60" height="31.25" as="geometry" />
        </mxCell>
        <mxCell id="dG53fJAK-FC98SlLvQtN-115" style="edgeStyle=orthogonalEdgeStyle;rounded=0;orthogonalLoop=1;jettySize=auto;html=1;entryX=0;entryY=0.67;entryDx=0;entryDy=0;entryPerimeter=0;" edge="1" parent="1" source="dG53fJAK-FC98SlLvQtN-113" target="dG53fJAK-FC98SlLvQtN-10">
          <mxGeometry relative="1" as="geometry">
            <Array as="points">
              <mxPoint x="160" y="410" />
              <mxPoint x="160" y="310" />
              <mxPoint x="420" y="310" />
            </Array>
          </mxGeometry>
        </mxCell>
        <mxCell id="dG53fJAK-FC98SlLvQtN-116" value="x1" style="text;html=1;align=left;verticalAlign=bottom;resizable=0;points=[];autosize=1;strokeColor=none;fillColor=none;" vertex="1" parent="1">
          <mxGeometry x="420" y="290" width="40" height="30" as="geometry" />
        </mxCell>
        <mxCell id="dG53fJAK-FC98SlLvQtN-117" value="11" style="text;html=1;align=right;verticalAlign=bottom;resizable=0;points=[];autosize=1;strokeColor=none;fillColor=none;" vertex="1" parent="1">
          <mxGeometry x="-220" y="40.629999999999995" width="40" height="30" as="geometry" />
        </mxCell>
        <mxCell id="dG53fJAK-FC98SlLvQtN-118" value="" style="endArrow=none;html=1;rounded=0;" edge="1" parent="1">
          <mxGeometry width="50" height="50" relative="1" as="geometry">
            <mxPoint x="-210" y="70" as="sourcePoint" />
            <mxPoint x="-190" y="50" as="targetPoint" />
          </mxGeometry>
        </mxCell>
        <mxCell id="dG53fJAK-FC98SlLvQtN-119" value="{1&#39;b0,&lt;br&gt;rom_out[18:9]}" style="text;html=1;align=center;verticalAlign=middle;resizable=0;points=[];autosize=1;strokeColor=none;fillColor=none;" vertex="1" parent="1">
          <mxGeometry x="-205" y="60.629999999999995" width="100" height="40" as="geometry" />
        </mxCell>
        <mxCell id="dG53fJAK-FC98SlLvQtN-120" value="" style="shape=trapezoid;perimeter=trapezoidPerimeter;whiteSpace=wrap;html=1;fixedSize=1;rotation=90;" vertex="1" parent="1">
          <mxGeometry x="-250" y="500" width="60" height="31.25" as="geometry" />
        </mxCell>
        <mxCell id="dG53fJAK-FC98SlLvQtN-121" style="edgeStyle=orthogonalEdgeStyle;rounded=0;orthogonalLoop=1;jettySize=auto;html=1;entryX=0;entryY=0.83;entryDx=0;entryDy=0;entryPerimeter=0;" edge="1" parent="1" source="dG53fJAK-FC98SlLvQtN-120" target="dG53fJAK-FC98SlLvQtN-10">
          <mxGeometry relative="1" as="geometry">
            <Array as="points">
              <mxPoint x="200" y="516" />
              <mxPoint x="200" y="339" />
            </Array>
          </mxGeometry>
        </mxCell>
        <mxCell id="dG53fJAK-FC98SlLvQtN-123" value="" style="endArrow=none;html=1;rounded=0;" edge="1" parent="1">
          <mxGeometry width="50" height="50" relative="1" as="geometry">
            <mxPoint x="-320" y="70.63" as="sourcePoint" />
            <mxPoint x="-300" y="50.63" as="targetPoint" />
          </mxGeometry>
        </mxCell>
        <mxCell id="dG53fJAK-FC98SlLvQtN-124" value="11" style="text;html=1;align=right;verticalAlign=bottom;resizable=0;points=[];autosize=1;strokeColor=none;fillColor=none;" vertex="1" parent="1">
          <mxGeometry x="-330" y="40.629999999999995" width="40" height="30" as="geometry" />
        </mxCell>
        <mxCell id="dG53fJAK-FC98SlLvQtN-126" value="{2&#39;b0,&lt;br&gt;rom_out[8:0]}" style="text;html=1;align=center;verticalAlign=middle;resizable=0;points=[];autosize=1;strokeColor=none;fillColor=none;" vertex="1" parent="1">
          <mxGeometry x="-310" y="60.63" width="90" height="40" as="geometry" />
        </mxCell>
        <mxCell id="dG53fJAK-FC98SlLvQtN-128" value="&amp;nbsp;0" style="text;html=1;align=left;verticalAlign=bottom;resizable=0;points=[];autosize=1;strokeColor=none;fillColor=none;" vertex="1" parent="1">
          <mxGeometry x="-50" y="270" width="30" height="30" as="geometry" />
        </mxCell>
        <mxCell id="dG53fJAK-FC98SlLvQtN-129" value="&amp;nbsp;0" style="text;html=1;align=left;verticalAlign=middle;resizable=0;points=[];autosize=1;strokeColor=none;fillColor=none;" vertex="1" parent="1">
          <mxGeometry x="-130" y="380.63" width="30" height="30" as="geometry" />
        </mxCell>
        <mxCell id="dG53fJAK-FC98SlLvQtN-130" value="&amp;nbsp;0" style="text;html=1;align=left;verticalAlign=bottom;resizable=0;points=[];autosize=1;strokeColor=none;fillColor=none;" vertex="1" parent="1">
          <mxGeometry x="-240" y="480" width="30" height="30" as="geometry" />
        </mxCell>
        <mxCell id="dG53fJAK-FC98SlLvQtN-132" style="edgeStyle=orthogonalEdgeStyle;rounded=0;orthogonalLoop=1;jettySize=auto;html=1;entryX=0.75;entryY=1;entryDx=0;entryDy=0;" edge="1" parent="1" source="dG53fJAK-FC98SlLvQtN-131" target="dG53fJAK-FC98SlLvQtN-113">
          <mxGeometry relative="1" as="geometry" />
        </mxCell>
        <mxCell id="dG53fJAK-FC98SlLvQtN-131" value="clear_x1" style="text;html=1;align=center;verticalAlign=middle;resizable=0;points=[];autosize=1;strokeColor=none;fillColor=none;labelPosition=center;verticalLabelPosition=middle;" vertex="1" parent="1">
          <mxGeometry x="-260" y="410" width="70" height="30" as="geometry" />
        </mxCell>
        <mxCell id="dG53fJAK-FC98SlLvQtN-133" value="&amp;nbsp;1" style="text;html=1;align=left;verticalAlign=middle;resizable=0;points=[];autosize=1;strokeColor=none;fillColor=none;" vertex="1" parent="1">
          <mxGeometry x="-130" y="410" width="30" height="30" as="geometry" />
        </mxCell>
        <mxCell id="dG53fJAK-FC98SlLvQtN-138" value="" style="edgeStyle=orthogonalEdgeStyle;orthogonalLoop=1;jettySize=auto;html=1;rounded=0;entryX=0.75;entryY=1;entryDx=0;entryDy=0;" edge="1" parent="1" target="dG53fJAK-FC98SlLvQtN-120">
          <mxGeometry width="80" relative="1" as="geometry">
            <mxPoint x="480" y="750" as="sourcePoint" />
            <mxPoint x="-290" y="700" as="targetPoint" />
            <Array as="points">
              <mxPoint x="480" y="770" />
              <mxPoint x="-540" y="770" />
              <mxPoint x="-540" y="320" />
              <mxPoint x="-420" y="320" />
              <mxPoint x="-420" y="531" />
            </Array>
          </mxGeometry>
        </mxCell>
        <mxCell id="dG53fJAK-FC98SlLvQtN-140" value="clear_y" style="edgeLabel;html=1;align=center;verticalAlign=middle;resizable=0;points=[];" vertex="1" connectable="0" parent="dG53fJAK-FC98SlLvQtN-138">
          <mxGeometry x="0.5347" y="1" relative="1" as="geometry">
            <mxPoint x="-9" y="1" as="offset" />
          </mxGeometry>
        </mxCell>
        <mxCell id="dG53fJAK-FC98SlLvQtN-141" value="" style="endArrow=none;html=1;rounded=0;endFill=0;" edge="1" parent="1">
          <mxGeometry width="50" height="50" relative="1" as="geometry">
            <mxPoint x="-470" y="320" as="sourcePoint" />
            <mxPoint x="-320" y="320" as="targetPoint" />
          </mxGeometry>
        </mxCell>
        <mxCell id="dG53fJAK-FC98SlLvQtN-142" value="" style="curved=1;endArrow=none;html=1;rounded=0;endFill=0;" edge="1" parent="1">
          <mxGeometry width="50" height="50" relative="1" as="geometry">
            <mxPoint x="-300" y="320" as="sourcePoint" />
            <mxPoint x="-320" y="320" as="targetPoint" />
            <Array as="points">
              <mxPoint x="-300" y="310" />
              <mxPoint x="-320" y="310" />
            </Array>
          </mxGeometry>
        </mxCell>
        <mxCell id="dG53fJAK-FC98SlLvQtN-143" value="" style="curved=1;endArrow=none;html=1;rounded=0;endFill=0;" edge="1" parent="1">
          <mxGeometry width="50" height="50" relative="1" as="geometry">
            <mxPoint x="-190" y="320" as="sourcePoint" />
            <mxPoint x="-210" y="320" as="targetPoint" />
            <Array as="points">
              <mxPoint x="-190" y="310" />
              <mxPoint x="-210" y="310" />
            </Array>
          </mxGeometry>
        </mxCell>
        <mxCell id="dG53fJAK-FC98SlLvQtN-144" value="" style="endArrow=none;html=1;rounded=0;" edge="1" parent="1">
          <mxGeometry width="50" height="50" relative="1" as="geometry">
            <mxPoint x="-300" y="320" as="sourcePoint" />
            <mxPoint x="-210" y="320" as="targetPoint" />
          </mxGeometry>
        </mxCell>
        <mxCell id="dG53fJAK-FC98SlLvQtN-145" value="" style="endArrow=classic;html=1;rounded=0;entryX=0.75;entryY=1;entryDx=0;entryDy=0;" edge="1" parent="1" target="dG53fJAK-FC98SlLvQtN-100">
          <mxGeometry width="50" height="50" relative="1" as="geometry">
            <mxPoint x="-190" y="320" as="sourcePoint" />
            <mxPoint x="-140" y="260" as="targetPoint" />
          </mxGeometry>
        </mxCell>
        <mxCell id="dG53fJAK-FC98SlLvQtN-147" value="clear_y" style="text;html=1;align=right;verticalAlign=middle;resizable=0;points=[];autosize=1;strokeColor=none;fillColor=none;" vertex="1" parent="1">
          <mxGeometry x="390" y="640.63" width="60" height="30" as="geometry" />
        </mxCell>
        <mxCell id="dG53fJAK-FC98SlLvQtN-148" value="" style="endArrow=none;html=1;rounded=0;" edge="1" parent="1">
          <mxGeometry width="50" height="50" relative="1" as="geometry">
            <mxPoint x="-570" y="40" as="sourcePoint" />
            <mxPoint x="-550" y="10" as="targetPoint" />
          </mxGeometry>
        </mxCell>
        <mxCell id="dG53fJAK-FC98SlLvQtN-149" value="12&amp;nbsp;" style="text;html=1;align=center;verticalAlign=middle;resizable=0;points=[];autosize=1;strokeColor=none;fillColor=none;" vertex="1" parent="1">
          <mxGeometry x="-580" y="-10" width="40" height="30" as="geometry" />
        </mxCell>
        <mxCell id="dG53fJAK-FC98SlLvQtN-150" value="" style="endArrow=none;html=1;rounded=0;" edge="1" parent="1">
          <mxGeometry width="50" height="50" relative="1" as="geometry">
            <mxPoint x="-463.12" y="330" as="sourcePoint" />
            <mxPoint x="-443.12" y="310" as="targetPoint" />
          </mxGeometry>
        </mxCell>
        <mxCell id="dG53fJAK-FC98SlLvQtN-151" value="11" style="text;html=1;align=center;verticalAlign=middle;resizable=0;points=[];autosize=1;strokeColor=none;fillColor=none;" vertex="1" parent="1">
          <mxGeometry x="-473.12" y="290" width="40" height="30" as="geometry" />
        </mxCell>
        <mxCell id="dG53fJAK-FC98SlLvQtN-152" value="&amp;nbsp;1" style="text;html=1;align=left;verticalAlign=middle;resizable=0;points=[];autosize=1;strokeColor=none;fillColor=none;" vertex="1" parent="1">
          <mxGeometry x="-240" y="520" width="30" height="30" as="geometry" />
        </mxCell>
        <mxCell id="dG53fJAK-FC98SlLvQtN-153" value="&amp;nbsp;1" style="text;html=1;align=left;verticalAlign=middle;resizable=0;points=[];autosize=1;strokeColor=none;fillColor=none;" vertex="1" parent="1">
          <mxGeometry x="-50" y="310" width="30" height="30" as="geometry" />
        </mxCell>
        <mxCell id="dG53fJAK-FC98SlLvQtN-155" style="edgeStyle=orthogonalEdgeStyle;rounded=0;orthogonalLoop=1;jettySize=auto;html=1;entryX=1;entryY=0.5;entryDx=0;entryDy=0;" edge="1" parent="1" source="dG53fJAK-FC98SlLvQtN-154" target="dG53fJAK-FC98SlLvQtN-40">
          <mxGeometry relative="1" as="geometry" />
        </mxCell>
        <mxCell id="dG53fJAK-FC98SlLvQtN-154" value="SW[0]" style="text;html=1;align=center;verticalAlign=middle;resizable=0;points=[];autosize=1;strokeColor=none;fillColor=none;" vertex="1" parent="1">
          <mxGeometry x="186.88" y="205" width="60" height="30" as="geometry" />
        </mxCell>
        <mxCell id="dG53fJAK-FC98SlLvQtN-157" style="edgeStyle=orthogonalEdgeStyle;rounded=0;orthogonalLoop=1;jettySize=auto;html=1;entryX=1;entryY=0.5;entryDx=0;entryDy=0;" edge="1" parent="1" source="dG53fJAK-FC98SlLvQtN-156" target="dG53fJAK-FC98SlLvQtN-81">
          <mxGeometry relative="1" as="geometry" />
        </mxCell>
        <mxCell id="dG53fJAK-FC98SlLvQtN-156" value="SW[0]" style="text;html=1;align=center;verticalAlign=middle;resizable=0;points=[];autosize=1;strokeColor=none;fillColor=none;" vertex="1" parent="1">
          <mxGeometry x="62.5" y="280" width="60" height="30" as="geometry" />
        </mxCell>
        <mxCell id="dG53fJAK-FC98SlLvQtN-159" style="edgeStyle=orthogonalEdgeStyle;rounded=0;orthogonalLoop=1;jettySize=auto;html=1;entryX=1;entryY=0.5;entryDx=0;entryDy=0;" edge="1" parent="1" source="dG53fJAK-FC98SlLvQtN-158" target="dG53fJAK-FC98SlLvQtN-100">
          <mxGeometry relative="1" as="geometry" />
        </mxCell>
        <mxCell id="dG53fJAK-FC98SlLvQtN-158" value="SW[0]" style="text;html=1;align=center;verticalAlign=middle;resizable=0;points=[];autosize=1;strokeColor=none;fillColor=none;" vertex="1" parent="1">
          <mxGeometry x="-60" y="360" width="60" height="30" as="geometry" />
        </mxCell>
        <mxCell id="dG53fJAK-FC98SlLvQtN-161" style="edgeStyle=orthogonalEdgeStyle;rounded=0;orthogonalLoop=1;jettySize=auto;html=1;entryX=1;entryY=0.5;entryDx=0;entryDy=0;" edge="1" parent="1" source="dG53fJAK-FC98SlLvQtN-160" target="dG53fJAK-FC98SlLvQtN-113">
          <mxGeometry relative="1" as="geometry" />
        </mxCell>
        <mxCell id="dG53fJAK-FC98SlLvQtN-160" value="SW[0]" style="text;html=1;align=center;verticalAlign=middle;resizable=0;points=[];autosize=1;strokeColor=none;fillColor=none;" vertex="1" parent="1">
          <mxGeometry x="-140" y="460" width="60" height="30" as="geometry" />
        </mxCell>
        <mxCell id="dG53fJAK-FC98SlLvQtN-163" style="edgeStyle=orthogonalEdgeStyle;rounded=0;orthogonalLoop=1;jettySize=auto;html=1;entryX=1;entryY=0.5;entryDx=0;entryDy=0;" edge="1" parent="1" source="dG53fJAK-FC98SlLvQtN-162" target="dG53fJAK-FC98SlLvQtN-120">
          <mxGeometry relative="1" as="geometry">
            <mxPoint x="-200" y="529.9999999999998" as="targetPoint" />
          </mxGeometry>
        </mxCell>
        <mxCell id="dG53fJAK-FC98SlLvQtN-162" value="SW[0]" style="text;html=1;align=center;verticalAlign=middle;resizable=0;points=[];autosize=1;strokeColor=none;fillColor=none;" vertex="1" parent="1">
          <mxGeometry x="-250" y="580" width="60" height="30" as="geometry" />
        </mxCell>
        <mxCell id="dG53fJAK-FC98SlLvQtN-168" value="" style="endArrow=none;html=1;rounded=0;" edge="1" parent="1">
          <mxGeometry width="50" height="50" relative="1" as="geometry">
            <mxPoint x="647.5" y="380.63" as="sourcePoint" />
            <mxPoint x="667.5" y="360.63" as="targetPoint" />
          </mxGeometry>
        </mxCell>
        <mxCell id="dG53fJAK-FC98SlLvQtN-169" value="1" style="text;strokeColor=none;align=center;fillColor=none;html=1;verticalAlign=bottom;whiteSpace=wrap;rounded=0;" vertex="1" parent="1">
          <mxGeometry x="647.5" y="350.63" width="60" height="30" as="geometry" />
        </mxCell>
        <mxCell id="dG53fJAK-FC98SlLvQtN-170" value="" style="endArrow=none;html=1;rounded=0;" edge="1" parent="1">
          <mxGeometry width="50" height="50" relative="1" as="geometry">
            <mxPoint x="710" y="540" as="sourcePoint" />
            <mxPoint x="730" y="520" as="targetPoint" />
          </mxGeometry>
        </mxCell>
        <mxCell id="dG53fJAK-FC98SlLvQtN-171" value="1" style="text;strokeColor=none;align=center;fillColor=none;html=1;verticalAlign=bottom;whiteSpace=wrap;rounded=0;" vertex="1" parent="1">
          <mxGeometry x="690" y="490" width="60" height="30" as="geometry" />
        </mxCell>
        <mxCell id="dG53fJAK-FC98SlLvQtN-176" value="" style="endArrow=none;html=1;rounded=0;" edge="1" parent="1">
          <mxGeometry width="50" height="50" relative="1" as="geometry">
            <mxPoint x="790" y="600" as="sourcePoint" />
            <mxPoint x="810" y="580" as="targetPoint" />
          </mxGeometry>
        </mxCell>
        <mxCell id="dG53fJAK-FC98SlLvQtN-177" value="1" style="text;strokeColor=none;align=center;fillColor=none;html=1;verticalAlign=bottom;whiteSpace=wrap;rounded=0;" vertex="1" parent="1">
          <mxGeometry x="770" y="550" width="60" height="30" as="geometry" />
        </mxCell>
        <mxCell id="dG53fJAK-FC98SlLvQtN-178" value="" style="endArrow=none;html=1;rounded=0;" edge="1" parent="1">
          <mxGeometry width="50" height="50" relative="1" as="geometry">
            <mxPoint x="650" y="290" as="sourcePoint" />
            <mxPoint x="670" y="270" as="targetPoint" />
          </mxGeometry>
        </mxCell>
        <mxCell id="dG53fJAK-FC98SlLvQtN-179" value="" style="endArrow=none;html=1;rounded=0;" edge="1" parent="1">
          <mxGeometry width="50" height="50" relative="1" as="geometry">
            <mxPoint x="700" y="245" as="sourcePoint" />
            <mxPoint x="720" y="225" as="targetPoint" />
          </mxGeometry>
        </mxCell>
        <mxCell id="dG53fJAK-FC98SlLvQtN-180" value="11" style="text;html=1;align=center;verticalAlign=middle;resizable=0;points=[];autosize=1;strokeColor=none;fillColor=none;" vertex="1" parent="1">
          <mxGeometry x="700" y="200" width="40" height="30" as="geometry" />
        </mxCell>
        <mxCell id="dG53fJAK-FC98SlLvQtN-181" value="11" style="text;html=1;align=center;verticalAlign=middle;resizable=0;points=[];autosize=1;strokeColor=none;fillColor=none;" vertex="1" parent="1">
          <mxGeometry x="639.38" y="250" width="40" height="30" as="geometry" />
        </mxCell>
        <mxCell id="dG53fJAK-FC98SlLvQtN-182" value="y1" style="text;html=1;align=left;verticalAlign=bottom;resizable=0;points=[];autosize=1;strokeColor=none;fillColor=none;" vertex="1" parent="1">
          <mxGeometry x="420" y="320" width="40" height="30" as="geometry" />
        </mxCell>
        <mxCell id="dG53fJAK-FC98SlLvQtN-183" value="" style="endArrow=none;html=1;rounded=0;" edge="1" parent="1">
          <mxGeometry width="50" height="50" relative="1" as="geometry">
            <mxPoint x="130" y="640" as="sourcePoint" />
            <mxPoint x="150" y="610" as="targetPoint" />
          </mxGeometry>
        </mxCell>
        <mxCell id="dG53fJAK-FC98SlLvQtN-184" value="1" style="text;html=1;align=center;verticalAlign=middle;resizable=0;points=[];autosize=1;strokeColor=none;fillColor=none;" vertex="1" parent="1">
          <mxGeometry x="122.5" y="580" width="30" height="30" as="geometry" />
        </mxCell>
        <mxCell id="dG53fJAK-FC98SlLvQtN-185" value="" style="endArrow=none;html=1;rounded=0;" edge="1" parent="1">
          <mxGeometry width="50" height="50" relative="1" as="geometry">
            <mxPoint x="-370" y="40" as="sourcePoint" />
            <mxPoint x="-350" y="10" as="targetPoint" />
          </mxGeometry>
        </mxCell>
        <mxCell id="dG53fJAK-FC98SlLvQtN-186" value="39" style="text;html=1;align=center;verticalAlign=middle;resizable=0;points=[];autosize=1;strokeColor=none;fillColor=none;" vertex="1" parent="1">
          <mxGeometry x="-380" y="-10" width="40" height="30" as="geometry" />
        </mxCell>
        <mxCell id="dG53fJAK-FC98SlLvQtN-188" value="rom_out" style="text;html=1;align=center;verticalAlign=middle;resizable=0;points=[];autosize=1;strokeColor=none;fillColor=none;" vertex="1" parent="1">
          <mxGeometry x="-440" y="10" width="70" height="30" as="geometry" />
        </mxCell>
      </root>
    </mxGraphModel>
  </diagram>
</mxfile>
